<svg id="Layer_1" data-name="Layer 1" xmlns="http://www.w3.org/2000/svg" viewBox="0 0 1280 512"><defs><style>.cls-1{fill:#294d77;}.cls-2{fill:#223d4a;}.cls-3{fill:#2f2218;}.cls-4{fill:none;stroke:#223d4a;stroke-miterlimit:10;stroke-width:8px;}.cls-5{fill:#385577;}</style></defs><rect class="cls-1" width="1280" height="512"/><path class="cls-2" d="M-37.35,362.09C95.51,344,98.1,382,232.19,382s134.1-20,268.2-20,134.1,20,268.2,20,134.11-20,268.21-20,134,1.78,266.85,19.91c18.13,2.47,11.35,8.39,11.35,26.69s-20,18.3-20,36.6,20,18.3,20,36.59-20,18.31-20,36.61,29.49,44,11.35,46.51C1173.49,583,1170.9,545,1036.81,545s-134.1,20-268.2,20-134.1-20-268.2-20S366.3,565,232.2,565s-134-1.78-266.85-19.91C-52.78,542.62-46,536.7-46,518.4s20-18.3,20-36.6-20-18.3-20-36.59,24-21.17,19.72-39C-32.35,381.14-55.49,364.57-37.35,362.09Z"/><path class="cls-3" d="M1004.7,494.75c-149.94-16.1-282.23-74.88-334.19-150.88C659.08,327.16,646,301.57,646,268.75l1.67-6.8,391.46,123.87Z"/><path class="cls-3" d="M951.45,358.06l-182.1-57.62,11.47-36.23c29.07,7.23,59.65,15.74,91.48,25.8,32.17,10.17,62.4,20.9,90.62,31.82Z"/><rect class="cls-3" x="824.65" y="228.95" width="32" height="57" transform="translate(116.84 -241.61) rotate(17.56)"/><rect class="cls-3" x="904.67" y="271.05" width="32" height="57" transform="matrix(0.95, 0.3, -0.3, 0.95, 133.27, -263.8)"/><path class="cls-2" d="M1250.26,413.62c-28-8-26.38-19.62-55.5-19.62s-29.13,20-58.25,20-29.13-20-58.25-20-29.13,20-58.25,20-29.12-20-58.25-20-29.12,20-58.25,20-29.12-20-58.25-20S816.14,414,787,414s-29.12-20-58.25-20-29.12,20-58.25,20-29.13-20-58.26-20-27.5,11.65-55.51,19.62c-8,2.27-12.74-1.33-12.74,7s20,8.29,20,16.58-20,8.29-20,16.58,20,8.29,20,16.58-20,8.29-20,16.58,20,8.3,20,16.59-20,8.29-20,16.58,20,8.29,20,16.58-20,8.29-20,16.59,20,8.29,20,16.58-20,8.3-20,16.59,4.76,4.7,12.74,7c28,8,26.38,19.62,55.5,19.62s29.13-20,58.25-20,29.13,20,58.25,20,29.13-20,58.25-20,29.12,20,58.25,20,29.12-20,58.25-20,29.12,20,58.25,20,29.12-20,58.25-20,29.12,20,58.25,20,29.12-20,58.25-20,29.13,20,58.26,20,27.5-11.65,55.51-19.62c8-2.27,12.74,1.33,12.74-7s-20-8.29-20-16.58,20-8.29,20-16.58-20-8.29-20-16.58,20-8.29,20-16.58-20-8.3-20-16.59,20-8.29,20-16.58-20-8.29-20-16.58,20-8.29,20-16.59-20-8.29-20-16.58,17.73-6.15,19.71-14.2C1263.9,418.14,1258.24,415.89,1250.26,413.62Z"/><path class="cls-2" d="M228,189c0,7.62-4,7.62-4,15.25s4,7.62,4,15.25-4,7.62-4,15.24,4,7.63,4,15.25-4,7.62-4,15.25,4,7.62,4,15.24-4,7.63-4,15.26,4,7.62,4,15.24-4,7.63-4,15.25,4,7.63,4,15.25-4,7.63-4,15.25,4,7.63,4,15.25-4,7.63-4,15.25,4,7.63,4,15.26-4,7.63-4,15.25,4,7.63,4,15.26"/><path class="cls-4" d="M228,189c0,7.62-4,7.62-4,15.25s4,7.62,4,15.25-4,7.62-4,15.24,4,7.63,4,15.25-4,7.62-4,15.25,4,7.62,4,15.24-4,7.63-4,15.26,4,7.62,4,15.24-4,7.63-4,15.25,4,7.63,4,15.25-4,7.63-4,15.25,4,7.63,4,15.25-4,7.63-4,15.25,4,7.63,4,15.26-4,7.63-4,15.25,4,7.63,4,15.26"/><path class="cls-2" d="M262,231c0,7.62-4,7.62-4,15.25s4,7.62,4,15.25-4,7.62-4,15.24,4,7.63,4,15.25-4,7.62-4,15.25,4,7.62,4,15.24-4,7.63-4,15.26,4,7.62,4,15.24-4,7.63-4,15.25,4,7.63,4,15.25-4,7.63-4,15.25,4,7.63,4,15.25-4,7.63-4,15.25,4,7.63,4,15.26-4,7.63-4,15.25,4,7.63,4,15.26"/><path class="cls-4" d="M262,231c0,7.62-4,7.62-4,15.25s4,7.62,4,15.25-4,7.62-4,15.24,4,7.63,4,15.25-4,7.62-4,15.25,4,7.62,4,15.24-4,7.63-4,15.26,4,7.62,4,15.24-4,7.63-4,15.25,4,7.63,4,15.25-4,7.63-4,15.25,4,7.63,4,15.25-4,7.63-4,15.25,4,7.63,4,15.26-4,7.63-4,15.25,4,7.63,4,15.26"/><path class="cls-2" d="M193,311c0,7.62-4,7.62-4,15.25s4,7.62,4,15.25-4,7.62-4,15.24,4,7.63,4,15.25-4,7.62-4,15.25,4,7.62,4,15.24-4,7.63-4,15.26,4,7.62,4,15.24-4,7.63-4,15.25,4,7.63,4,15.25-4,7.63-4,15.25,4,7.63,4,15.25-4,7.63-4,15.25,4,7.63,4,15.26-4,7.63-4,15.25,4,7.63,4,15.26"/><path class="cls-4" d="M193,311c0,7.62-4,7.62-4,15.25s4,7.62,4,15.25-4,7.62-4,15.24,4,7.63,4,15.25-4,7.62-4,15.25,4,7.62,4,15.24-4,7.63-4,15.26,4,7.62,4,15.24-4,7.63-4,15.25,4,7.63,4,15.25-4,7.63-4,15.25,4,7.63,4,15.25-4,7.63-4,15.25,4,7.63,4,15.26-4,7.63-4,15.25,4,7.63,4,15.26"/><path class="cls-2" d="M1163,258c0,7.62-4,7.62-4,15.25s4,7.62,4,15.25-4,7.62-4,15.24,4,7.63,4,15.25-4,7.62-4,15.25,4,7.62,4,15.24-4,7.63-4,15.26,4,7.62,4,15.24-4,7.63-4,15.25,4,7.63,4,15.25-4,7.63-4,15.25,4,7.63,4,15.25-4,7.63-4,15.25,4,7.63,4,15.26-4,7.63-4,15.25,4,7.63,4,15.26"/><path class="cls-4" d="M1163,258c0,7.62-4,7.62-4,15.25s4,7.62,4,15.25-4,7.62-4,15.24,4,7.63,4,15.25-4,7.62-4,15.25,4,7.62,4,15.24-4,7.63-4,15.26,4,7.62,4,15.24-4,7.63-4,15.25,4,7.63,4,15.25-4,7.63-4,15.25,4,7.63,4,15.25-4,7.63-4,15.25,4,7.63,4,15.26-4,7.63-4,15.25,4,7.63,4,15.26"/><path class="cls-2" d="M1181,190c0,7.62-4,7.62-4,15.25s4,7.62,4,15.25-4,7.62-4,15.24,4,7.63,4,15.25-4,7.62-4,15.25,4,7.62,4,15.24-4,7.63-4,15.26,4,7.62,4,15.24-4,7.63-4,15.25,4,7.63,4,15.25-4,7.63-4,15.25,4,7.63,4,15.25-4,7.63-4,15.25,4,7.63,4,15.26-4,7.63-4,15.25,4,7.63,4,15.26"/><path class="cls-4" d="M1181,190c0,7.62-4,7.62-4,15.25s4,7.62,4,15.25-4,7.62-4,15.24,4,7.63,4,15.25-4,7.62-4,15.25,4,7.62,4,15.24-4,7.63-4,15.26,4,7.62,4,15.24-4,7.63-4,15.25,4,7.63,4,15.25-4,7.63-4,15.25,4,7.63,4,15.25-4,7.63-4,15.25,4,7.63,4,15.26-4,7.63-4,15.25,4,7.63,4,15.26"/><path class="cls-2" d="M1142,140c0,7.62-4,7.62-4,15.25s4,7.62,4,15.25-4,7.62-4,15.24,4,7.63,4,15.25-4,7.62-4,15.25,4,7.62,4,15.24-4,7.63-4,15.26,4,7.62,4,15.24-4,7.63-4,15.25,4,7.63,4,15.25-4,7.63-4,15.25,4,7.63,4,15.25-4,7.63-4,15.25,4,7.63,4,15.26-4,7.63-4,15.25,4,7.63,4,15.26"/><path class="cls-4" d="M1142,140c0,7.62-4,7.62-4,15.25s4,7.62,4,15.25-4,7.62-4,15.24,4,7.63,4,15.25-4,7.62-4,15.25,4,7.62,4,15.24-4,7.63-4,15.26,4,7.62,4,15.24-4,7.63-4,15.25,4,7.63,4,15.25-4,7.63-4,15.25,4,7.63,4,15.25-4,7.63-4,15.25,4,7.63,4,15.26-4,7.63-4,15.25,4,7.63,4,15.26"/><path class="cls-2" d="M556,286c0,7.62-4,7.62-4,15.25s4,7.62,4,15.25-4,7.62-4,15.24,4,7.63,4,15.25-4,7.62-4,15.25,4,7.62,4,15.24-4,7.63-4,15.26,4,7.62,4,15.24-4,7.63-4,15.25,4,7.63,4,15.25-4,7.63-4,15.25,4,7.63,4,15.25-4,7.63-4,15.25,4,7.63,4,15.26-4,7.63-4,15.25,4,7.63,4,15.26"/><path class="cls-4" d="M556,286c0,7.62-4,7.62-4,15.25s4,7.62,4,15.25-4,7.62-4,15.24,4,7.63,4,15.25-4,7.62-4,15.25,4,7.62,4,15.24-4,7.63-4,15.26,4,7.62,4,15.24-4,7.63-4,15.25,4,7.63,4,15.25-4,7.63-4,15.25,4,7.63,4,15.25-4,7.63-4,15.25,4,7.63,4,15.26-4,7.63-4,15.25,4,7.63,4,15.26"/><path class="cls-2" d="M527,320c0,7.62-4,7.62-4,15.25s4,7.62,4,15.25-4,7.62-4,15.24,4,7.63,4,15.25-4,7.62-4,15.25,4,7.62,4,15.24-4,7.63-4,15.26,4,7.62,4,15.24-4,7.63-4,15.25,4,7.63,4,15.25-4,7.63-4,15.25,4,7.63,4,15.25-4,7.63-4,15.25,4,7.63,4,15.26-4,7.63-4,15.25,4,7.63,4,15.26"/><path class="cls-4" d="M527,320c0,7.62-4,7.62-4,15.25s4,7.62,4,15.25-4,7.62-4,15.24,4,7.63,4,15.25-4,7.62-4,15.25,4,7.62,4,15.24-4,7.63-4,15.26,4,7.62,4,15.24-4,7.63-4,15.25,4,7.63,4,15.25-4,7.63-4,15.25,4,7.63,4,15.25-4,7.63-4,15.25,4,7.63,4,15.26-4,7.63-4,15.25,4,7.63,4,15.26"/><circle class="cls-5" cx="548.5" cy="190.5" r="7.5"/><circle class="cls-5" cx="528" cy="179" r="5"/><circle class="cls-5" cx="546.5" cy="159.5" r="10.5"/><circle class="cls-5" cx="121" cy="264" r="5"/><circle class="cls-5" cx="104.5" cy="247.5" r="9.5"/><circle class="cls-5" cx="121" cy="233" r="5"/><circle class="cls-5" cx="1082.61" cy="47.39" r="5.1"/><circle class="cls-5" cx="1097.83" cy="55.29" r="8.1"/><circle class="cls-5" cx="1075.06" cy="279.59" r="5.1"/><circle class="cls-5" cx="1084.67" cy="267.27" r="6.55"/><circle class="cls-5" cx="1072.11" cy="267.97" r="2.78"/></svg>