<svg xmlns="http://www.w3.org/2000/svg" viewBox="0 0 142 103"><defs><style>.cls-1{fill:#205057;}.cls-2{fill:#3c8698;}.cls-3{font-size:48px;fill:#ef9c3d;font-family:ParkLaneNF, Park Lane NF;}</style></defs><g id="Layer_1" data-name="Layer 1"><ellipse class="cls-1" cx="71" cy="51.5" rx="71" ry="51.5"/><ellipse class="cls-2" cx="71" cy="51.5" rx="68" ry="48.5"/><ellipse class="cls-1" cx="71" cy="51.5" rx="65" ry="44.5"/></g><g id="Layer_2" data-name="Layer 2"><path class="cls-1" d="M525.46,422.79a16.27,16.27,0,0,1-16.31-16.3v-2h5.35v2a11,11,0,0,0,15,10.21V397l-4.69-1.72a9.86,9.86,0,0,1-4.49-3,7,7,0,0,1-1.67-4.45,6.36,6.36,0,0,1,1.94-4.62,6.71,6.71,0,0,1,4.86-1.89,7,7,0,0,1,3.94,1.2,6.8,6.8,0,0,1,2.62,3.23l.75,1.88-5,1.91-.75-1.81a1.44,1.44,0,0,0-.59-.73,1.74,1.74,0,0,0-1-.29,1.55,1.55,0,0,0-1.08.3.9.9,0,0,0-.28.73,1.75,1.75,0,0,0,.46,1.13,3.75,3.75,0,0,0,1.66,1.13l8.63,3.32v.21a16.48,16.48,0,0,1,5.16,5.63,15.08,15.08,0,0,1,1.85,7.35A16.08,16.08,0,0,1,540,414a16.43,16.43,0,0,1-5.14,5.82h0v.09l-1,.58A16.35,16.35,0,0,1,525.46,422.79Z" transform="translate(-509 -369)"/><polygon class="cls-1" points="38.22 53.12 38.22 18.32 31.11 18.32 31.11 13.02 57.58 13.02 57.58 18.32 50.09 18.32 50.09 53.12 38.22 53.12"/><path class="cls-1" d="M582.75,422.12l-1.15-3.55h-9.52l-1.15,3.55h-5.68l1.2-3.55h-1.57v-5.3h3.35L575,393.32h.71l-.35-1,3-8.76h3.79l13.34,38.61Zm-3-8.85-3-8.77-2.94,8.77Z" transform="translate(-509 -369)"/><path class="cls-1" d="M615.38,422.12l-3.11-5.2a19.06,19.06,0,0,1-5.18,1.59v3.61h-12v-34.8H593V382h11.78a18.34,18.34,0,0,1,18,18.32,18.15,18.15,0,0,1-2,8.25,18.49,18.49,0,0,1-4.1,5.35l3.09,5.15-1.71,3Zm-8.29-9a12.2,12.2,0,0,0,6.7-3.75,13,13,0,0,0,0-18,12.2,12.2,0,0,0-6.7-3.75Z" transform="translate(-509 -369)"/><polygon class="cls-1" points="119.19 53.12 119.19 18.32 112.09 18.32 112.09 13.02 138.55 13.02 138.55 18.32 131.06 18.32 131.06 53.12 119.19 53.12"/><path class="cls-1" d="M535.73,462.74a20.17,20.17,0,0,1-13.34-4.84l-.71-.6v-.43l-.3.13a21,21,0,0,1-4.66-6.71,19.52,19.52,0,0,1-1.71-8,20.21,20.21,0,0,1,6.38-15.17l.29.12v-.43l.72-.6a22,22,0,0,1,6-3.52,18.61,18.61,0,0,1,6.81-1.36,20.8,20.8,0,0,1,14.19,5.11l1.44,1.27-3.4,4.17-1.56-1.39a14.66,14.66,0,0,0-10.19-3.82,15.12,15.12,0,0,0-8.65,2.73v25.31a15.1,15.1,0,0,0,8.75,2.72,14.81,14.81,0,0,0,10.49-4.2,14.39,14.39,0,0,0,4.58-8H539.06v-5.3H556.5v2a20.76,20.76,0,0,1-20.77,20.82Z" transform="translate(-509 -369)"/><path class="cls-1" d="M572.68,462.12l-1.16-3.55H562l-1.15,3.55h-5.68l1.2-3.55H554.8v-5.3h3.35l6.74-19.95h.71l-.35-1,3-8.76H572l13.35,38.61Zm-3-8.85-3-8.77-2.94,8.77Z" transform="translate(-509 -369)"/><path class="cls-1" d="M612.59,462.12V431.75a4.31,4.31,0,0,0-1.13-3,4.35,4.35,0,0,0-.58-.56v33.9H599V431.46a3.78,3.78,0,0,0-1.13-2.71,5.55,5.55,0,0,0-.58-.52v33.89H585.42v-34.8h-2.54V422h12v0a10.33,10.33,0,0,1,4.11,1v-1h9.47v0a10.09,10.09,0,0,1,6.51,2.67,9.16,9.16,0,0,1,3,7v30.37Z" transform="translate(-509 -369)"/><polygon class="cls-1" points="109.5 93.12 109.5 58.32 107.29 58.32 107.29 53.02 132.7 53.02 132.7 58.32 121.32 58.32 121.32 61.18 130.2 61.18 130.2 66.53 121.32 66.53 121.32 87.73 132.7 87.73 132.7 93.12 109.5 93.12"/><text class="cls-3" transform="translate(1.12 50.99)">start<tspan x="5.86" y="40">game</tspan></text></g></svg>