<svg id="Layer_1" data-name="Layer 1" xmlns="http://www.w3.org/2000/svg" viewBox="0 0 1280 512"><defs><style>.cls-1{fill:#fbd377;}.cls-2{fill:#fda036;}.cls-3{fill:#23507c;}.cls-4{fill:#2f2218;}.cls-5{fill:#235e7c;}.cls-6{fill:#31717c;}.cls-7{fill:#605638;}</style></defs><rect class="cls-1" width="1280" height="512"/><circle class="cls-2" cx="136.5" cy="215.5" r="272.5"/><path class="cls-2" d="M1332.69,512.3,135.88,209.73l6.76-30.25,1216.9,212.78Z"/><path class="cls-2" d="M1370,236,136,202V171l1234-58Z"/><path class="cls-3" d="M-28,282.43c34.85-5,36.35,15.92,71.56,15.92s35.21-16,70.41-16,35.21,16,70.42,16,35.21-16,70.42-16,35.21,16,70.42,16,35.21-16,70.42-16,35.21,16,70.42,16,35.21-16,70.42-16,35.2,16,70.41,16,35.21-16,70.42-16,35.22,16,70.43,16,35.21-16,70.42-16,35.21,16,70.42,16,35.21-16,70.42-16,35.21,16,70.42,16,35.21-16,70.42-16,35.22,16,70.43,16,35.21-16,70.43-16,34.43,10.92,69.29,15.92c5,.72,9.14-2.87,9.14,2.18s-16,5.05-16,10.1,16,5.06,16,10.11-16,5-16,10.1,16,5.05,16,10.1-16,5.05-16,10.11,16,5,16,10.1-16,5.05-16,10.11,16,5.05,16,10.1-16,5.05-16,10.11,16,5.05,16,10.1-16,5.05-16,10.11,16,5,16,10.1-16,5.05-16,10.1,16,5.06,16,10.11-16,5.06-16,10.11,16,5.05,16,10.11-16,5.05-16,10.11,14.14,17.31,9.13,18c-34.85,5-36.34-15.92-71.55-15.92s-35.21,16-70.42,16-35.21-16-70.42-16-35.21,16-70.42,16-35.21-16-70.42-16-35.21,16-70.42,16-35.21-16-70.42-16-35.2,16-70.41,16-35.21-16-70.42-16-35.21,16-70.42,16-35.21-16-70.42-16-35.21,16-70.42,16-35.22-16-70.43-16-35.21,16-70.42,16-35.21-16-70.42-16-35.21,16-70.42,16-35.21-16-70.43-16-35.21,16-70.43,16S9.17,479.43-25.69,474.43c-5-.71-9.13,2.87-9.13-2.18s16-5.05,16-10.1-16-5-16-10.1,16-5.05,16-10.1-16-5.05-16-10.11,16-5,16-10.1-16-5.05-16-10.11,16-5.05,16-10.1-16-5-16-10.1,16-5.06,16-10.11-16-5.05-16-10.11,16-5,16-10.1-16-5.05-16-10.11,16-5.05,16-10.1-16-5-16-10.1,16-5.06,16-10.11-16-5.06-16-10.11,16.91-6.93,15.8-11.86C-21.13,289.3-33,283.15-28,282.43Z"/><path class="cls-4" d="M1028,350c-132.8,32.13-257.09,16.93-316-47a137.2,137.2,0,0,1-29-49v-7h345Z"/><path class="cls-5" d="M-28,312.43c34.85-5,36.35,15.92,71.56,15.92s35.21-16,70.41-16,35.21,16,70.42,16,35.21-16,70.42-16,35.21,16,70.42,16,35.21-16,70.42-16,35.21,16,70.42,16,35.21-16,70.42-16,35.2,16,70.41,16,35.21-16,70.42-16,35.22,16,70.43,16,35.21-16,70.42-16,35.21,16,70.42,16,35.21-16,70.42-16,35.21,16,70.42,16,35.21-16,70.42-16,35.22,16,70.43,16,35.21-16,70.43-16,34.43,10.92,69.29,15.92c5,.72,9.14-2.87,9.14,2.18s-16,5.05-16,10.1,16,5.06,16,10.11-16,5-16,10.1,16,5.05,16,10.1-16,5.05-16,10.11,16,5,16,10.1-16,5.05-16,10.11,16,5.05,16,10.1-16,5.05-16,10.11,16,5.05,16,10.1-16,5.05-16,10.11,16,5,16,10.1-16,5.05-16,10.1,16,5.06,16,10.11-16,5.06-16,10.11,16,5.05,16,10.11-16,5.05-16,10.11,14.14,17.31,9.13,18c-34.85,5-36.34-15.92-71.55-15.92s-35.21,16-70.42,16-35.21-16-70.42-16-35.21,16-70.42,16-35.21-16-70.42-16-35.21,16-70.42,16-35.21-16-70.42-16-35.2,16-70.41,16-35.21-16-70.42-16-35.21,16-70.42,16-35.21-16-70.42-16-35.21,16-70.42,16-35.22-16-70.43-16-35.21,16-70.42,16-35.21-16-70.42-16-35.21,16-70.42,16-35.21-16-70.43-16-35.21,16-70.43,16S9.17,509.43-25.69,504.43c-5-.71-9.13,2.87-9.13-2.18s16-5.05,16-10.1-16-5-16-10.1,16-5.05,16-10.1-16-5.05-16-10.11,16-5,16-10.1-16-5.05-16-10.11,16-5.05,16-10.1-16-5-16-10.1,16-5.06,16-10.11-16-5.05-16-10.11,16-5,16-10.1-16-5.05-16-10.11,16-5.05,16-10.1-16-5-16-10.1,16-5.06,16-10.11-16-5.06-16-10.11,16.91-6.93,15.8-11.86C-21.13,319.3-33,313.15-28,312.43Z"/><path class="cls-6" d="M-30.14,350.08C4.71,345.08,6.21,366,41.42,366s35.21-16,70.42-16,35.21,16,70.42,16,35.21-16,70.42-16,35.21,16,70.42,16,35.21-16,70.42-16,35.21,16,70.41,16,35.21-16,70.42-16,35.21,16,70.42,16,35.21-16,70.42-16,35.21,16,70.42,16,35.21-16,70.42-16,35.21,16,70.42,16,35.21-16,70.43-16,35.21,16,70.42,16,35.21-16,70.42-16,35.21,16,70.42,16,35.22-16,70.43-16,34.44,10.92,69.29,15.92c5,.72,9.14-2.87,9.14,2.18s-16,5-16,10.1,16,5.05,16,10.1-16,5.06-16,10.11,16,5,16,10.1-16,5.05-16,10.1,16,5.06,16,10.11-16,5-16,10.1,16,5.05,16,10.11-16,5.05-16,10.1,16,5.06,16,10.11-16,5.05-16,10.1,16,5.06,16,10.11-16,5-16,10.1,16,5.05,16,10.11-16,5.05-16,10.11,16,5.05,16,10.1-16,5.06-16,10.12,14.14,17.31,9.14,18c-34.85,5-36.35-15.92-71.56-15.92s-35.21,16-70.42,16-35.21-16-70.42-16-35.21,16-70.42,16-35.21-16-70.42-16-35.21,16-70.42,16-35.21-16-70.41-16-35.21,16-70.42,16-35.21-16-70.42-16S640,558,604.81,558s-35.21-16-70.42-16S499.18,558,464,558s-35.21-16-70.42-16-35.21,16-70.43,16-35.21-16-70.42-16-35.21,16-70.42,16-35.21-16-70.42-16-35.22,16-70.43,16S7,547.08-27.86,542.08c-5-.72-9.14,2.87-9.14-2.18s16-5,16-10.1-16-5-16-10.1,16-5.06,16-10.11-16-5-16-10.1,16-5.05,16-10.1-16-5.06-16-10.11,16-5,16-10.1-16-5.05-16-10.11S-21,454-21,449s-16-5.06-16-10.11,16-5.05,16-10.1-16-5.06-16-10.11,16-5,16-10.1-16-5.05-16-10.11,16-5.05,16-10.11-16-5.05-16-10.1,16.91-6.93,15.81-11.87C-23.3,357-35.14,350.8-30.14,350.08Z"/><path class="cls-4" d="M777,216q5.41-1,11-2c58.81-9.86,117.29-7.24,168,0v33H777V216Z"/><path class="cls-4" d="M847,227H815V160a64,64,0,0,1,32,0Z"/><path class="cls-4" d="M921,227H889V176a65,65,0,0,1,32,0Z"/><rect class="cls-7" x="784" y="223" width="25" height="20" rx="2"/><rect class="cls-7" x="812" y="223" width="25" height="20" rx="2"/><rect class="cls-7" x="840" y="223" width="25" height="20" rx="2"/><rect class="cls-7" x="868" y="223" width="25" height="20" rx="2"/><rect class="cls-7" x="896" y="223" width="25" height="20" rx="2"/><rect class="cls-7" x="924" y="223" width="25" height="20" rx="2"/><path class="cls-2" d="M1366.33-10,146,176.12l-5.52-30.5L1344.44-131Z"/><path class="cls-2" d="M1200.13-270.56,55.94,192.82l-12.43-28.4L1150.84-383.26Z"/></svg>