<?xml version="1.0" encoding="utf-8"?>
<!-- Generator: Adobe Illustrator 26.0.1, SVG Export Plug-In . SVG Version: 6.00 Build 0)  -->
<svg version="1.1" id="Layer_1" xmlns="http://www.w3.org/2000/svg" xmlns:xlink="http://www.w3.org/1999/xlink" x="0px" y="0px"
	 viewBox="0 0 50 50" style="enable-background:new 0 0 50 50;" xml:space="preserve">
<style type="text/css">
	.st0{fill:#38302A;}
</style>
<g>
	<path class="st0" d="M36.9,40.9c-1.2,0-2.3-0.5-3.2-1.3l-9.2-9.2l-9.2,9.2c-0.8,0.8-2,1.3-3.2,1.3s-2.3-0.5-3.2-1.3
		c-0.8-0.8-1.3-2-1.3-3.2c0-1.2,0.5-2.3,1.3-3.2l9.2-9.2l-9.2-9.2c-0.8-0.8-1.3-2-1.3-3.2s0.5-2.3,1.3-3.2c0.8-0.8,2-1.3,3.2-1.3
		s2.3,0.5,3.2,1.3l9.2,9.2l9.2-9.2c0.8-0.8,2-1.3,3.2-1.3c1.2,0,2.3,0.5,3.2,1.3c0.8,0.8,1.3,2,1.3,3.2s-0.5,2.3-1.3,3.2L30.9,24
		l9.2,9.2c1.8,1.8,1.8,4.6,0,6.4C39.2,40.4,38.1,40.9,36.9,40.9z"/>
</g>
</svg>
