<?xml version="1.0" standalone="no"?>
<svg xmlns="http://www.w3.org/2000/svg" xmlns:xlink="http://www.w3.org/1999/xlink" height="200px" width="200px">
  <defs>
    <pattern id="doodad" width="300" height="300" viewBox="0 0 40 40" patternUnits="userSpaceOnUse" patternTransform="rotate(45)">
      <rect width="100%" height="100%" fill="rgba(73, 167, 183,1)"/>
      <path d="M0 40a 8.5-8.5 0 0 0 8.5-8.5a 11.5-11.5 0 0 1 11.5-11.5a 8.5-8.5 0 0 0 8.5-8.5a 11.5-11.5 0 0 1 11.5-11.5v3a-8.5 8.5 0 0 0-8.5 8.5a-11.5 11.5 0 0 1-11.5 11.5a-8.5 8.5 0 0 0-8.5 8.5a-11.5 11.5 0 0 1-11.5 11.5zM0 0a 8.5-8.5 0 0 0 8.5-8.5h3a-11.5 11.5 0 0 1-11.5 11.5z" fill="rgba(66, 151, 165,1)"/>
      <path d="M0 0a 8-8 0 0 0 8-8a 12-12 0 0 1 12-12a 8-8 0 0 0 8-8a 12-12 0 0 1 12-12v4a-8 8 0 0 0-8 8a-12 12 0 0 1-12 12a-8 8 0 0 0-8 8a-12 12 0 0 1-12 12zM0 40a 8-8 0 0 0 8-8a 12-12 0 0 1 12-12a 8-8 0 0 0 8-8a 12-12 0 0 1 12-12v4a-8 8 0 0 0-8 8a-12 12 0 0 1-12 12a-8 8 0 0 0-8 8a-12 12 0 0 1-12 12z " fill="rgba(66, 151, 165,1)"/>
    </pattern>
  </defs>
  <rect fill="url(#doodad)" height="200%" width="200%"/>
</svg>
